HIERARCHY
ROOT pelvis
{
  OFFSET 0 0 0
  CHANNELS 6 Xposition Yposition Zposition Zrotation Xrotation Yrotation
  JOINT pelvis_right_femur
  {
    OFFSET -11.43119 -3.542788 0.2090856
    CHANNELS 3 Zrotation Xrotation Yrotation
    JOINT right_femur_tibia
    {
      OFFSET -1.028693 -40.73281 5
      CHANNELS 3 Zrotation Xrotation Yrotation
      JOINT right_tibia_foot
      {
        OFFSET -0.5013517 -42.05707 -5
        CHANNELS 3 Zrotation Xrotation Yrotation
        End Site
        {
          OFFSET 0 -5 10
        }
      }
    }
  }
  JOINT pelvis_left_femur
  {
    OFFSET 11.43119 -3.542788 0.2090856
    CHANNELS 3 Zrotation Xrotation Yrotation
    JOINT left_femur_tibia
    {
      OFFSET 1.028693 -40.73281 5
      CHANNELS 3 Zrotation Xrotation Yrotation
      JOINT left_tibia_foot
      {
        OFFSET 0.3200228 -42.98253 -5
        CHANNELS 3 Zrotation Xrotation Yrotation
        End Site
        {
          OFFSET 0 -5 10
        }
      }
    }
  }
  JOINT pelvis_spine1
  {
    OFFSET 0 8.64413 -3.209807
    CHANNELS 3 Zrotation Xrotation Yrotation
    JOINT spine1
    {
      OFFSET 0 29.53957 -1.762685
      CHANNELS 3 Zrotation Xrotation Yrotation
      JOINT spine2
      {
        OFFSET 0 16.36153 -0.1422377
        CHANNELS 3 Zrotation Xrotation Yrotation
        JOINT neck
        {
          OFFSET 0 11.60093 5
          CHANNELS 3 Zrotation Xrotation Yrotation
          End Site
          {
            OFFSET 0 20 0
          }
        }
      }
      JOINT right_manubrium
      {
        OFFSET -4.671311 15.89868 4
        CHANNELS 3 Zrotation Xrotation Yrotation
        JOINT right_clavicle
        {
          OFFSET -13.601 1.573642 -2.74176
          CHANNELS 3 Zrotation Xrotation Yrotation
          JOINT right_humerus
          {
            OFFSET -0.06331682 -27.72702 2.252146
            CHANNELS 3 Zrotation Xrotation Yrotation
            JOINT right_radius
            {
              OFFSET -0.5696302 -23.92083 0.4042105
              CHANNELS 3 Zrotation Xrotation Yrotation
              End Site
              {
                OFFSET 0 -15 0
              }
            }
          }
        }
      }
      JOINT left_manubrium
      {
        OFFSET 4.671311 15.89868 4
        CHANNELS 3 Zrotation Xrotation Yrotation
        JOINT left_clavicle
        {
          OFFSET 13.601 1.573642 -2.74176
          CHANNELS 3 Zrotation Xrotation Yrotation
          JOINT left_humerus
          {
            OFFSET 0.000209614 -29.01858 1.101395
            CHANNELS 3 Zrotation Xrotation Yrotation
            JOINT left_radius
            {
              OFFSET -0.2288314 -24.59216 1.790347
              CHANNELS 3 Zrotation Xrotation Yrotation
              End Site
              {
                OFFSET 0 -15 0
              }
            }
          }
        }
      }
    }
  }
}
MOTION
Frames: 22
Frame Time: 0.0416666666667
0 48.05195 0 -3.910776 -23.18651 -1.570314 -47.6188 -57.89286 -35.98665 -180 81.68221 -180 10.64712 1.759734 2.029089 62.58889 -48.62946 49.81106 -180 72.64379 -180 -6.534592 -7.173307 -13.90728 1.657125 23.04947 2.049303 7.314613 16.02123 -8.971904 -14.71195 9.156508 5.869194 6.735201 -28.21361 -3.803609 21.56311 -12.98996 24.65111 -63.6668 -24.7846 12.27194 0 -67.82276 0 2.027277 -16.43727 22.82416 -28.65204 -35.64045 -4.446254 50.08396 -22.95799 -31.9266 0 -71.47275 0 -16.21626 17.63423 -37.76497
-0.005266476 48.04078 0.0003289496 -3.932472 -23.14276 -1.638696 -47.76303 -57.90546 -36.21992 -180 81.69689 -180 10.66313 1.79568 2.135636 62.59618 -48.72973 49.75442 -180 72.5979 -180 -6.540938 -7.180698 -13.76224 1.493553 23.25611 1.977578 7.990064 15.99347 -9.30327 -15.2507 8.91431 5.984157 6.59986 -28.41679 -4.082728 22.80046 -15.19359 23.67051 -64.36855 -22.22473 7.773526 0 -66.95277 0 -1.282499 -18.89808 21.17528 -28.70193 -35.83612 -3.902221 50.20928 -22.86084 -31.77923 0 -71.95191 0 -16.15423 17.46979 -37.66254
0.0368875 48.04444 0.004749891 -3.975463 -23.03452 -1.750687 -47.96097 -57.95067 -36.49929 -180 81.74325 -180 10.6795 1.834851 2.245503 62.65223 -48.82518 49.78566 -180 72.53481 -180 -6.553424 -7.190058 -13.61707 1.386645 23.47746 1.816256 8.665619 15.8049 -9.633348 -15.8654 8.791473 6.222728 6.412026 -28.59362 -4.21476 24.29696 -18.25804 22.93571 -65.29593 -19.67268 2.460511 0 -65.1846 0 -5.068068 -21.13288 19.05482 -28.78307 -35.99473 -3.279708 50.38248 -22.65006 -31.61022 0 -72.48668 0 -16.10147 17.26861 -37.51726
0.08735982 48.07569 0.04574664 -4.009018 -22.86593 -1.862478 -48.22833 -57.99682 -36.84028 -180 81.78813 -180 10.69104 1.868234 2.382356 62.72206 -48.92195 49.8637 -180 72.46855 -180 -6.569869 -7.200442 -13.46096 1.339699 23.6702 1.610765 9.275617 15.46829 -9.885836 -16.43642 8.76852 6.513497 6.230545 -28.76349 -4.230878 25.86133 -21.97634 22.74962 -66.47118 -17.38539 -3.177312 0 -62.30857 0 -8.762995 -22.72918 16.59788 -28.88175 -36.05834 -2.682071 50.59327 -22.33533 -31.48984 0 -73.04028 0 -16.08167 17.02832 -37.33104
0.1154067 48.11984 0.09893513 -4.003773 -22.64809 -1.94442 -48.60774 -58.05203 -37.29626 -180 81.81784 -180 10.70282 1.893725 2.538927 62.77718 -49.05851 49.95063 -180 72.4215 -180 -6.586134 -7.197985 -13.29542 1.365964 23.82238 1.45772 9.694142 15.05682 -10.03576 -16.86545 8.787555 6.778965 6.109297 -28.92959 -4.197973 27.14837 -25.92084 23.22868 -67.91213 -15.47467 -8.48637 0 -58.15049 0 -11.72558 -23.40684 14.07355 -28.97528 -36.05375 -2.20495 50.83659 -21.98479 -31.42676 0 -73.58207 0 -16.09872 16.74452 -37.09781
0.09124442 48.15678 0.1624426 -3.945377 -22.40934 -1.973312 -49.08958 -58.12 -37.8525 -180 81.79672 -180 10.71756 1.907976 2.701775 62.8386 -49.23636 50.0504 -180 72.38101 -180 -6.604201 -7.182087 -13.11775 1.508908 23.96995 1.41228 9.832443 14.67794 -10.0503 -17.15315 8.674363 6.948291 6.038827 -29.17316 -4.213856 27.79577 -29.51071 24.14572 -69.53059 -13.80593 -12.82294 0 -52.63282 0 -13.47783 -23.13439 11.76482 -29.08367 -36.02952 -1.934286 51.10379 -21.66241 -31.41244 0 -74.10852 0 -16.15416 16.40868 -36.81609
0.0537889 48.17535 0.2310232 -3.823824 -22.18213 -1.988704 -49.68514 -58.20023 -38.46915 -180 81.72615 -180 10.73002 1.912055 2.873147 62.83812 -49.4389 50.11044 -180 72.34586 -180 -6.62642 -7.15142 -12.91953 1.816605 24.07887 1.415871 9.639654 14.49165 -9.969583 -17.37447 8.355419 7.004594 5.968109 -29.51243 -4.338794 27.51475 -32.31217 25.16374 -71.22025 -12.38874 -15.71541 0 -46.22226 0 -13.77734 -22.1905 9.940512 -29.19686 -36.06696 -1.861721 51.42152 -21.39711 -31.34322 0 -74.60642 0 -16.22227 16.01248 -36.47581
-0.01772294 48.18237 0.2813623 -3.622086 -21.95588 -1.988393 -50.33144 -58.33614 -39.07618 -180 81.64968 -180 10.73622 1.916446 3.034121 62.76123 -49.62907 50.139 -180 72.35063 -180 -6.661218 -7.126609 -12.71414 2.254201 24.14442 1.457246 9.137482 14.55501 -9.816989 -17.61125 7.834325 6.973262 5.836936 -29.92882 -4.574246 26.31754 -34.06644 26.11355 -72.69977 -11.35702 -16.96177 0 -39.59742 0 -12.73595 -20.95417 8.700947 -29.29123 -36.17794 -1.968666 51.7826 -21.19944 -31.19712 0 -75.08978 0 -16.29284 15.5496 -36.07313
-0.06859482 48.18207 0.3205941 -3.387301 -21.74297 -2.041434 -50.96004 -58.52213 -39.62602 -180 81.58118 -180 10.73615 1.93391 3.192225 62.58601 -49.766 50.14324 -180 72.37083 -180 -6.712416 -7.1227 -12.51677 2.747491 24.16182 1.488494 8.519328 14.7976 -9.666449 -17.92417 7.200322 6.906193 5.596954 -30.38865 -4.866469 24.66982 -34.93309 26.9002 -73.79388 -10.70998 -16.98594 0 -33.49879 0 -10.92966 -19.75218 7.909611 -29.35696 -36.3404 -2.140163 52.16848 -21.03798 -30.97807 0 -75.50217 0 -16.35832 15.03052 -35.59379
-0.09150925 48.18573 0.3347415 -3.116906 -21.54513 -2.12939 -51.63335 -58.74749 -40.15048 -180 81.52834 -180 10.73202 1.960951 3.344648 62.34569 -49.85881 50.13521 -180 72.41136 -180 -6.775675 -7.137653 -12.33525 3.180552 24.15895 1.556175 7.991939 15.0948 -9.49468 -18.31017 6.588709 6.846701 5.257613 -30.82401 -5.14934 23.16771 -35.23248 27.66111 -74.43594 -10.39125 -16.40086 0 -28.3288 0 -8.966207 -18.78275 7.273119 -29.4511 -36.50057 -2.382608 52.48969 -20.93536 -30.78914 0 -75.78083 0 -16.43227 14.46906 -35.02472
-0.1089936 48.17193 0.3377601 -2.811349 -21.37027 -2.191284 -52.36592 -58.98696 -40.65977 -180 81.44754 -180 10.73218 1.997092 3.486053 62.1106 -49.93627 50.1831 -180 72.43738 -180 -6.843938 -7.158293 -12.1867 3.459184 24.13515 1.718299 7.690309 15.34328 -9.269042 -18.71554 6.105268 6.811703 4.854628 -31.18267 -5.370823 22.23576 -35.32472 28.61372 -74.73161 -10.44405 -15.72604 0 -24.44018 0 -7.328558 -18.23653 6.562687 -29.60475 -36.60223 -2.691528 52.66693 -20.89806 -30.71009 0 -75.90085 0 -16.52057 13.86989 -34.35435
-0.1078849 48.13702 0.3300331 -2.491006 -21.20652 -2.247736 -53.12743 -59.25653 -41.15456 -180 81.34471 -180 10.73798 2.043361 3.605281 61.88628 -49.99291 50.30078 -180 72.44795 -180 -6.910819 -7.172691 -12.07665 3.499786 24.09134 1.93548 7.702582 15.48802 -9.111774 -19.09506 5.780905 6.826683 4.438607 -31.44316 -5.489771 21.79322 -35.5545 29.41221 -75.12393 -10.5247 -15.40126 0 -21.55012 0 -6.477775 -17.90851 5.744293 -29.7197 -36.63803 -2.881952 52.69068 -20.92116 -30.75472 0 -75.9127 0 -16.62127 13.22878 -33.57718
-0.1268315 48.07395 0.3121763 -2.0747 -21.02414 -2.250819 -54.06028 -59.60401 -41.68961 -180 81.18836 -180 10.75329 2.07641 3.675997 61.69879 -50.03034 50.55526 -180 72.46852 -180 -6.978905 -7.173555 -12.03025 3.364492 24.02766 2.261391 7.858549 15.52112 -8.982308 -19.47954 5.542935 6.871359 4.007081 -31.61888 -5.565245 21.52543 -35.85004 30.02896 -75.62254 -10.57144 -15.31068 0 -19.36738 0 -6.165938 -17.64071 4.848594 -29.74455 -36.61749 -2.990226 52.58779 -21.04335 -30.94242 0 -75.7985 0 -16.74435 12.54113 -32.68395
-0.2283512 47.92514 0.2924485 -1.473236 -20.8306 -2.195668 -55.21404 -60.0849 -42.37404 -180 80.91838 -180 10.79958 2.045517 3.660443 61.57002 -50.02183 50.95871 -180 72.49793 -180 -7.042273 -7.162197 -12.08199 2.893636 23.94209 2.762157 7.951657 15.39668 -8.792933 -19.80849 5.328734 6.925682 3.598986 -31.72104 -5.609477 21.20411 -36.08752 30.49062 -76.14549 -10.56953 -15.29485 0 -17.61398 0 -6.19653 -17.32261 3.905601 -29.59541 -36.55489 -3.039548 52.43164 -21.29176 -31.2621 0 -75.58496 0 -16.89675 11.78857 -31.66941
-0.2695434 47.88865 0.2848671 -1.075563 -20.62302 -2.025254 -56.00662 -60.33956 -42.78321 -180 80.75575 -180 10.84939 1.986673 3.602701 61.47997 -50.03808 51.34603 -180 72.58522 -180 -7.085323 -7.152514 -12.20335 2.779097 23.9101 3.060017 7.93734 15.25459 -8.573907 -20.13044 5.029346 7.0072 3.204302 -31.86334 -5.619945 20.81943 -36.16635 30.78897 -76.64274 -10.45499 -15.27897 0 -16.18955 0 -6.361308 -16.93127 2.938878 -29.51824 -36.4393 -3.078093 52.21453 -21.58688 -31.69018 0 -75.32361 0 -17.07195 10.9393 -30.52873
-0.2880847 47.94142 0.3248743 -0.8213947 -20.45692 -1.753642 -56.40718 -60.38222 -42.89473 -180 80.65723 -180 10.90425 1.88075 3.511307 61.38951 -50.03217 51.63548 -180 72.71171 -180 -7.101323 -7.14669 -12.38345 2.744941 23.65875 3.302664 7.957795 15.31029 -8.56139 -20.37131 4.787792 7.150756 2.907722 -31.9604 -5.530226 20.35295 -36.04503 30.85028 -77.05993 -10.42577 -15.14875 0 -15.66613 0 -6.480514 -16.65997 2.09098 -29.5392 -36.32142 -3.176341 52.03747 -21.89624 -32.12395 0 -74.88677 0 -17.25259 10.0001 -29.23554
-0.3199832 47.98567 0.3964587 -0.690086 -20.35733 -1.462513 -56.50874 -60.33316 -42.7852 -180 80.55015 -180 10.96354 1.746639 3.404907 61.41445 -49.9783 51.8903 -180 72.80246 -180 -7.093396 -7.144591 -12.61533 2.699528 23.30857 3.312754 7.989031 15.37749 -8.640261 -20.51734 4.608732 7.380477 2.720539 -31.92591 -5.30454 19.87987 -35.67456 30.63856 -77.26478 -10.58662 -14.8314 0 -16.15511 0 -6.464968 -16.54109 1.39709 -29.54028 -36.21743 -3.178422 51.96406 -22.16881 -32.48774 0 -74.33893 0 -17.41974 8.936585 -27.76991
-0.3490822 48.02595 0.4824853 -0.6500619 -20.32993 -1.212743 -56.40478 -60.21191 -42.5624 -180 80.46083 -180 11.01301 1.630182 3.319729 61.48257 -49.87558 52.06119 -180 72.84327 -180 -7.077487 -7.157305 -12.84524 2.586876 22.88704 3.185787 8.115833 15.51361 -8.758107 -20.57198 4.478311 7.653395 2.609172 -31.75472 -4.997961 19.63511 -34.87051 30.34355 -77.01771 -11.01952 -14.22158 0 -17.7305 0 -6.32325 -16.64482 0.8718939 -29.54175 -36.11891 -3.136198 51.96083 -22.40402 -32.76942 0 -73.67324 0 -17.55357 7.728946 -26.10251
-0.2901368 48.01862 0.5535802 -0.7474776 -20.41933 -1.129568 -56.19423 -60.05498 -42.3143 -180 80.43342 -180 11.0394 1.59329 3.300569 61.60532 -49.74597 52.15251 -180 72.76809 -180 -7.066809 -7.18153 -13.01163 2.36448 22.42482 2.920519 8.483954 15.64517 -8.981018 -20.50995 4.456371 7.967317 2.573587 -31.4531 -4.594409 19.77678 -33.8378 29.96859 -76.45241 -11.76489 -13.51845 0 -20.46552 0 -6.386689 -17.07508 0.3166199 -29.53311 -36.04866 -3.025531 51.98073 -22.59409 -32.9277 0 -72.82205 0 -17.61945 6.370832 -24.19479
-0.208957 47.98508 0.5688093 -0.919792 -20.59673 -1.176239 -55.91663 -59.86328 -42.12691 -180 80.47434 -180 11.04255 1.653296 3.360364 61.71556 -49.59463 52.13535 -180 72.65951 -180 -7.060746 -7.221562 -13.10614 2.180353 22.05258 2.649744 8.875912 15.77146 -9.19002 -20.39145 4.447474 8.300412 2.57137 -31.1015 -4.150224 19.98334 -32.5101 29.66808 -75.61786 -12.92507 -12.50478 0 -24.18011 0 -6.326813 -17.68201 -0.08793094 -29.5242 -36.01976 -2.971005 51.96296 -22.78237 -32.94974 0 -71.79676 0 -17.58363 4.843944 -22.02191
-0.05330977 48.01976 0.5187733 -1.226672 -20.80159 -1.320765 -55.56472 -59.58723 -41.98228 -180 80.6525 -180 11.02087 1.803008 3.475963 61.75256 -49.45223 52.02039 -180 72.59138 -180 -7.066282 -7.286855 -13.12816 2.095374 21.74592 2.330093 9.3149 15.87303 -9.457569 -20.15231 4.437693 8.641953 2.658708 -30.74531 -3.663024 20.15529 -30.93316 29.38859 -74.58372 -14.39522 -11.18958 0 -28.64858 0 -6.176172 -18.37278 -0.3470437 -29.5464 -36.01538 -2.990853 51.8671 -22.92846 -32.80316 0 -70.57856 0 -17.39884 3.156384 -19.56332
-0.08769371 47.91891 0.4010966 -1.27027 -20.96841 -1.568998 -55.57587 -59.65121 -42.16126 -180 80.71358 -180 11.00251 1.968089 3.618775 61.85316 -49.26663 52.01462 -180 72.55429 -180 -7.084513 -7.337767 -13.1272 1.404286 21.45862 2.315119 9.725255 15.78718 -9.681068 -19.76387 4.469936 8.95663 2.867882 -30.29376 -3.187938 20.28758 -29.07801 29.16559 -73.27942 -16.06269 -9.544424 0 -33.50895 0 -5.954882 -19.02866 -0.5004857 -29.4374 -36.10144 -3.137985 51.67345 -23.19147 -32.52098 0 -69.26368 0 -17.06248 1.345406 -16.83895
